<svg width="16" height="16" viewBox="0 0 16 16" fill="none" xmlns="http://www.w3.org/2000/svg">
<path d="M15.0435 3.54822C15.0434 3.12882 14.9647 2.71353 14.8117 2.32609C14.6587 1.93865 14.4344 1.58665 14.1518 1.29021C13.8691 0.993764 13.5336 0.758683 13.1644 0.5984C12.7951 0.438116 12.3994 0.355772 11.9998 0.356071L7.396 0.357971C7.13608 0.371808 6.89119 0.490025 6.71203 0.688146C6.53286 0.886268 6.43315 1.14912 6.43353 1.42228C6.43391 1.69544 6.53435 1.95798 6.71406 2.15556C6.89377 2.35313 7.13899 2.4706 7.39894 2.48364L11.5949 2.48116L0.534837 14.0885C0.344783 14.2882 0.238071 14.5589 0.238177 14.8411C0.238283 15.1233 0.345197 15.3939 0.535401 15.5934C0.725605 15.7929 0.983517 15.9049 1.2524 15.9048C1.52128 15.9047 1.77911 15.7925 1.96917 15.5928L13.017 4.00128L13.0201 8.37903C13.0203 8.66131 13.1273 8.93195 13.3176 9.1314C13.5079 9.33086 13.7659 9.44279 14.0349 9.44258C14.3038 9.44237 14.5616 9.33003 14.7517 9.13028C14.9417 8.93053 15.0483 8.65973 15.0481 8.37744L15.0435 3.54822Z" fill="white"/>
</svg>
