<svg width="1366" height="768" viewBox="0 0 1366 768" fill="none" xmlns="http://www.w3.org/2000/svg">
<g clip-path="url(#clip0_632_236)">
<rect width="1366" height="768" fill="#1F1F24"/>
<g opacity="0.5">
<path d="M15.5 -22V790" stroke="white" stroke-opacity="0.1"/>
<path d="M0.0351562 138.104L1366 138.004" stroke="white" stroke-opacity="0.06"/>
<path d="M0.03125 100.104L1366 100.004" stroke="white" stroke-opacity="0.06"/>
<path d="M-183.992 37.1035L1723.96 37.0036" stroke="white" stroke-opacity="0.1"/>
<path d="M0.0351562 338.104L1366 338.004" stroke="white" stroke-opacity="0.06"/>
<path d="M0.03125 300.104L1366 300.004" stroke="white" stroke-opacity="0.06"/>
<path d="M0.015625 260.104L1365.98 260.004" stroke="white" stroke-opacity="0.06"/>
<path d="M0.0078125 220.104L1365.97 220.004" stroke="white" stroke-opacity="0.06"/>
<path d="M0 180.104L1365.97 180.004" stroke="white" stroke-opacity="0.06"/>
<path d="M0.0351562 538.104L1366 538.004" stroke="white" stroke-opacity="0.06"/>
<path d="M0.03125 500.104L1366 500.004" stroke="white" stroke-opacity="0.06"/>
<path d="M0.015625 460.104L1365.98 460.004" stroke="white" stroke-opacity="0.06"/>
<path d="M0.0078125 420.104L1365.97 420.004" stroke="white" stroke-opacity="0.06"/>
<path d="M0 380.104L1365.97 380.004" stroke="white" stroke-opacity="0.06"/>
<path d="M0.0351562 738.104L1366 738.004" stroke="white" stroke-opacity="0.06"/>
<path d="M0.03125 700.104L1366 700.004" stroke="white" stroke-opacity="0.06"/>
<path d="M0.015625 660.104L1365.98 660.004" stroke="white" stroke-opacity="0.06"/>
<path d="M0.0078125 620.104L1365.97 620.004" stroke="white" stroke-opacity="0.06"/>
<path d="M0 580.104L1365.97 580.004" stroke="white" stroke-opacity="0.06"/>
<path d="M55.5 -22V790" stroke="white" stroke-opacity="0.1"/>
<path d="M95.5 -22V790" stroke="white" stroke-opacity="0.1"/>
<path d="M136.5 -22V790" stroke="white" stroke-opacity="0.1"/>
<path d="M176.5 -22V790" stroke="white" stroke-opacity="0.1"/>
<path d="M216.5 -22V790" stroke="white" stroke-opacity="0.1"/>
<path d="M256.5 -22V790" stroke="white" stroke-opacity="0.1"/>
<path d="M296.5 -22V790" stroke="white" stroke-opacity="0.1"/>
<path d="M336.5 -22V790" stroke="white" stroke-opacity="0.1"/>
<path d="M376.5 -22V790" stroke="white" stroke-opacity="0.1"/>
<path d="M416.5 -22V790" stroke="white" stroke-opacity="0.1"/>
<path d="M496.5 -22V790" stroke="white" stroke-opacity="0.1"/>
<path d="M536.5 -22V790" stroke="white" stroke-opacity="0.1"/>
<path d="M576.5 -22V790" stroke="white" stroke-opacity="0.1"/>
<path d="M616.5 -22V790" stroke="white" stroke-opacity="0.1"/>
<path d="M656.5 -22V790" stroke="white" stroke-opacity="0.1"/>
<path d="M696.5 -22V790" stroke="white" stroke-opacity="0.1"/>
<path d="M736.5 -22V790" stroke="white" stroke-opacity="0.1"/>
<path d="M776.5 -22V790" stroke="white" stroke-opacity="0.1"/>
<path d="M816.5 -22V790" stroke="white" stroke-opacity="0.1"/>
<path d="M856.5 -22V790" stroke="white" stroke-opacity="0.1"/>
<path d="M896.5 -22V790" stroke="white" stroke-opacity="0.1"/>
<path d="M936.5 -22V790" stroke="white" stroke-opacity="0.1"/>
<path d="M976.5 -22V790" stroke="white" stroke-opacity="0.1"/>
<path d="M1016.5 -22V790" stroke="white" stroke-opacity="0.1"/>
<path d="M1056.5 -22V790" stroke="white" stroke-opacity="0.1"/>
<path d="M1096.5 -22V790" stroke="white" stroke-opacity="0.1"/>
<path d="M1136.5 -22V790" stroke="white" stroke-opacity="0.1"/>
<path d="M1176.5 -22V790" stroke="white" stroke-opacity="0.1"/>
<path d="M1216.5 -22V790" stroke="white" stroke-opacity="0.1"/>
<path d="M1256.5 -22V790" stroke="white" stroke-opacity="0.1"/>
<path d="M1296.5 -22V790" stroke="white" stroke-opacity="0.1"/>
<path d="M1336.5 -22V790" stroke="white" stroke-opacity="0.1"/>
<path d="M456.5 -22V790" stroke="white" stroke-opacity="0.1"/>
</g>
</g>
<defs>
<clipPath id="clip0_632_236">
<rect width="1366" height="768" fill="white"/>
</clipPath>
</defs>
</svg>
