<svg width="27" height="26" viewBox="0 0 27 26" fill="none" xmlns="http://www.w3.org/2000/svg">
<path d="M24.4881 5.59724L16.34 1.71549C14.5465 0.644157 12.3141 0.625148 10.5025 1.66577L2.26279 5.59724C2.23187 5.61273 2.19981 5.6293 2.16998 5.64697C0.214599 6.76502 -0.464231 9.25653 0.653823 11.2119C1.03281 11.8748 1.59028 12.4179 2.26279 12.7795L4.53573 13.8624V19.2768C4.53708 21.6978 6.11243 23.8368 8.42411 24.5563C10.0328 25.0217 11.7009 25.2495 13.3755 25.2325C15.0498 25.2513 16.7179 25.0254 18.3269 24.5618C20.6385 23.8424 22.2139 21.7034 22.2152 19.2823V13.8602L24.4252 12.8038V21.9176C24.4252 22.5278 24.9199 23.0225 25.5301 23.0225C26.1404 23.0225 26.6351 22.5278 26.6351 21.9176V8.65798C26.6424 7.36046 25.6179 6.16181 24.4881 5.59724ZM20.0052 19.2823C20.0058 20.7304 19.0662 22.0114 17.6848 22.4458C16.2839 22.8461 14.8323 23.0404 13.3754 23.0226C11.9186 23.0404 10.4669 22.8461 9.06606 22.4458C7.68463 22.0113 6.74506 20.7304 6.74563 19.2823V14.9155L10.4108 16.6613C11.3152 17.1984 12.348 17.4805 13.3998 17.4779C14.4009 17.485 15.3851 17.22 16.2473 16.7111L20.0052 14.9154V19.2823ZM23.5411 10.7851L15.2075 14.7629C14.0455 15.4395 12.6052 15.4204 11.4616 14.7132L3.30808 10.8348C2.39922 10.3447 2.05976 9.21064 2.54984 8.30184C2.71559 7.99449 2.9641 7.73971 3.26721 7.56629L11.5489 3.61053C12.7113 2.93543 14.1508 2.95454 15.2948 3.66025L23.4428 7.542C24.042 7.87473 24.4169 8.50306 24.4251 9.18842C24.4262 9.83762 24.0919 10.4413 23.5411 10.7851Z" fill="#FB65A6"/>
</svg>
