<svg width="28" height="28" viewBox="0 0 28 28" fill="none" xmlns="http://www.w3.org/2000/svg">
<path d="M27.9463 6.46484L18.1253 16.2858C17.0303 17.3781 15.5467 17.9916 14 17.9916C12.4533 17.9916 10.9697 17.3781 9.87467 16.2858L0.0536667 6.46484C0.0373333 6.64918 0 6.81601 0 6.99918V20.9992C0.0018525 22.5457 0.617029 24.0284 1.71059 25.1219C2.80415 26.2155 4.28681 26.8307 5.83333 26.8325H22.1667C23.7132 26.8307 25.1959 26.2155 26.2894 25.1219C27.383 24.0284 27.9981 22.5457 28 20.9992V6.99918C28 6.81601 27.9627 6.64918 27.9463 6.46484Z" fill="#F763A3"/>
<path d="M16.4768 14.6363L27.1331 3.97885C26.6169 3.12289 25.8888 2.41439 25.0191 1.9217C24.1494 1.42901 23.1674 1.16875 22.1678 1.16602H5.83447C4.8349 1.16875 3.85289 1.42901 2.98317 1.9217C2.11345 2.41439 1.38537 3.12289 0.869141 3.97885L11.5255 14.6363C12.183 15.2912 13.0732 15.6589 14.0011 15.6589C14.9291 15.6589 15.8193 15.2912 16.4768 14.6363Z" fill="#F763A3"/>
</svg>
