<svg width="31" height="30" viewBox="0 0 31 30" fill="none" xmlns="http://www.w3.org/2000/svg">
<path d="M10.493 0.946008C10.5782 0.945783 10.6634 0.945533 10.7485 0.945259C10.9268 0.94483 11.105 0.944844 11.2833 0.945149C11.5092 0.945481 11.7351 0.944511 11.961 0.943168C12.1371 0.942309 12.3131 0.942269 12.4891 0.942448C12.5722 0.942419 12.6554 0.942125 12.7385 0.941536C14.3132 0.93176 15.7051 1.47402 16.8295 2.57819C17.8317 3.64797 18.2813 5.00863 18.2774 6.45421C18.2782 6.5545 18.2791 6.65479 18.28 6.75508C18.2813 6.91035 18.2822 7.06554 18.2815 7.22081C18.2795 7.80141 18.2813 8.27351 18.5954 8.78358C18.8122 9.16077 18.766 9.6453 18.6643 10.0549C18.5061 10.5142 18.2185 10.9064 17.81 11.1714C17.64 11.2454 17.4709 11.3007 17.2909 11.3445C17.2824 11.4052 17.274 11.4659 17.2652 11.5285C17.0855 12.7211 16.5582 14.0071 15.5745 14.7681C15.5046 14.8173 15.4344 14.8661 15.3639 14.9146C15.0621 15.1209 15.0621 15.1209 14.8506 15.4144C14.8222 15.6176 14.8401 15.7124 14.9263 15.9006C15.1602 16.2031 15.4453 16.4587 15.7338 16.708C15.7869 16.6793 15.7869 16.6793 15.8411 16.6499C16.2131 16.4505 16.5857 16.3275 16.9897 16.2124C17.1793 16.1449 17.1793 16.1449 17.2911 16.0033C17.3927 15.7197 17.324 15.5096 17.199 15.2435C17.1627 15.1784 17.1264 15.1134 17.0891 15.0463C16.923 14.7306 16.7681 14.4191 16.8295 14.0551C16.9905 13.6148 17.3004 13.3201 17.6285 12.9985C17.7202 12.9085 17.8107 12.8175 17.9011 12.7264C18.4918 12.1393 18.4918 12.1393 18.9175 12.1282C19.2375 12.1356 19.4791 12.2662 19.7564 12.415C19.8507 12.4651 19.9453 12.5144 20.0403 12.563C20.0814 12.5851 20.1225 12.6071 20.1648 12.6298C20.3236 12.682 20.4188 12.6565 20.5783 12.6133C20.6318 12.6026 20.6853 12.5918 20.7405 12.5808C20.8029 12.5683 20.8029 12.5683 20.8666 12.5556C20.8809 12.4842 20.8952 12.4128 20.9099 12.3393C21.1385 11.3272 21.1385 11.3272 21.501 10.9984C21.795 10.8474 22.038 10.799 22.3695 10.8004C22.4126 10.8001 22.4558 10.7998 22.5002 10.7995C22.5909 10.7991 22.6816 10.7992 22.7723 10.7997C22.9099 10.8002 23.0473 10.7985 23.1849 10.7967C23.7122 10.7941 24.1147 10.7999 24.5171 11.1818C24.6499 11.4016 24.726 11.6266 24.8028 11.8707C24.826 11.9409 24.826 11.9409 24.8497 12.0124C24.9614 12.3573 24.9614 12.3573 24.9614 12.5556C25.2718 12.6547 25.5122 12.7098 25.8159 12.5687C25.908 12.5202 25.9992 12.4702 26.0896 12.4186C26.4466 12.2195 26.7372 12.0751 27.153 12.1519C27.5447 12.3072 27.8258 12.6195 28.1197 12.9135C28.2052 12.9987 28.292 13.0823 28.379 13.166C28.681 13.4627 28.9448 13.7348 28.9985 14.1704C28.9855 14.6179 28.7751 14.9995 28.5699 15.388C28.5493 15.4285 28.5286 15.4691 28.5074 15.5109C28.4882 15.5471 28.469 15.5833 28.4492 15.6206C28.4114 15.768 28.4646 15.8286 28.5371 15.9583C28.5371 16.0154 28.5371 16.0725 28.5371 16.1313C28.5755 16.1411 28.614 16.1509 28.6536 16.161C29.9269 16.4958 29.9269 16.4958 30.1864 16.9143C30.2872 17.1604 30.2933 17.3622 30.2923 17.6254C30.2926 17.674 30.2929 17.7226 30.2932 17.7727C30.2936 17.8751 30.2935 17.9774 30.293 18.0798C30.2925 18.2359 30.2942 18.3919 30.296 18.5479C30.2961 18.6477 30.2961 18.7475 30.2959 18.8473C30.2966 18.8937 30.2972 18.94 30.2979 18.9877C30.2941 19.2928 30.2354 19.463 30.0366 19.707C29.706 20.0221 28.9928 20.2837 28.5371 20.2837C28.5288 20.3266 28.5205 20.3694 28.5119 20.4135C28.4794 20.5721 28.4794 20.5721 28.442 20.6836C28.4161 20.8364 28.45 20.8912 28.5277 21.0236C28.551 21.065 28.5743 21.1064 28.5984 21.1491C28.6483 21.2345 28.6984 21.32 28.7484 21.4054C28.953 21.7686 29.0532 22.0729 28.9584 22.4881C28.819 22.8565 28.5145 23.1197 28.2369 23.3879C28.1403 23.4813 28.0452 23.576 27.9502 23.671C27.889 23.7314 27.8276 23.7918 27.7662 23.852C27.7379 23.8801 27.7097 23.9081 27.6806 23.937C27.4011 24.2051 27.1365 24.3017 26.7547 24.2976C26.4298 24.2349 26.1512 24.0659 25.8632 23.9083C25.6026 23.7696 25.4381 23.7262 25.1452 23.7982C25.0846 23.8184 25.0239 23.8386 24.9614 23.8595C24.9471 23.9308 24.9329 24.0022 24.9181 24.0757C24.6636 25.2024 24.6636 25.2024 24.1783 25.5112C23.9238 25.6124 23.7109 25.6089 23.4403 25.6004C23.3684 25.5993 23.3684 25.5993 23.295 25.5981C23.1776 25.5961 23.0602 25.593 22.9429 25.5896C22.954 25.6316 22.9652 25.6735 22.9766 25.7167C23.2198 26.6558 23.3897 27.5282 22.8852 28.4156C22.5391 28.9284 22.0283 29.2818 21.4232 29.429C21.2613 29.4552 21.1095 29.4611 20.9455 29.4613C20.8479 29.4616 20.8479 29.4616 20.7482 29.462C20.677 29.4619 20.6057 29.4619 20.5323 29.4618C20.4564 29.462 20.3805 29.4622 20.3023 29.4623C20.0917 29.4628 19.8811 29.4629 19.6704 29.4629C19.4432 29.463 19.216 29.4635 18.9888 29.4639C18.4921 29.4647 17.9953 29.465 17.4985 29.4653C17.1882 29.4654 16.878 29.4657 16.5677 29.4659C15.7085 29.4666 14.8493 29.4672 13.99 29.4674C13.9351 29.4674 13.8801 29.4674 13.8234 29.4675C13.7408 29.4675 13.7408 29.4675 13.6564 29.4675C13.5447 29.4675 13.4331 29.4675 13.3214 29.4676C13.266 29.4676 13.2106 29.4676 13.1535 29.4676C12.2561 29.4678 11.3586 29.4688 10.4612 29.4702C9.53951 29.4716 8.61786 29.4723 7.6962 29.4723C7.17882 29.4724 6.66145 29.4727 6.14408 29.4738C5.70349 29.4747 5.26291 29.475 4.82233 29.4745C4.59764 29.4743 4.37296 29.4743 4.14827 29.4751C3.94232 29.4758 3.73638 29.4758 3.53042 29.4751C3.42118 29.4749 3.31193 29.4756 3.20269 29.4763C2.50719 29.4723 1.89834 29.3054 1.37278 28.8299C0.852862 28.2728 0.706764 27.6869 0.719503 26.9468C0.74658 26.314 0.89585 25.6917 1.02088 25.0726C1.05014 24.9243 1.07933 24.7761 1.10845 24.6278C1.16925 24.3188 1.23082 24.01 1.29289 23.7013C1.36428 23.3463 1.43462 22.991 1.50437 22.6356C1.57205 22.2908 1.64033 21.9461 1.7089 21.6014C1.73781 21.456 1.7666 21.3105 1.79525 21.165C1.83544 20.9616 1.8763 20.7583 1.91735 20.555C1.92892 20.4958 1.94049 20.4366 1.95242 20.3757C2.1187 19.5623 2.39295 18.8626 3.10341 18.3805C3.50928 18.1635 3.94629 18.0531 4.38954 17.9403C4.51749 17.9077 4.64529 17.8745 4.77306 17.8412C5.09015 17.7586 5.40747 17.6769 5.72482 17.5954C5.99389 17.5262 6.26284 17.4566 6.53166 17.3864C6.65678 17.354 6.78204 17.3221 6.90732 17.2902C7.57562 17.1177 8.02896 16.901 8.52465 16.4161C8.56934 16.3757 8.61402 16.3352 8.66005 16.2936C8.89663 16.0627 9.01634 15.9021 9.02952 15.5649C9.01416 15.3711 9.00127 15.2874 8.88669 15.1281C8.81989 15.0876 8.81989 15.0876 8.75174 15.0463C8.70394 15.0145 8.65614 14.9827 8.60688 14.9499C8.53763 14.9066 8.53763 14.9066 8.46698 14.8625C7.56857 14.2199 6.98075 13.0923 6.7368 12.0365C6.72449 11.9212 6.71246 11.8059 6.70075 11.6905C6.67022 11.5019 6.65705 11.4288 6.5025 11.3129C6.40247 11.266 6.30105 11.2218 6.19859 11.1804C5.75658 10.9889 5.47767 10.6264 5.29498 10.191C5.09069 9.62819 5.1783 9.05668 5.4083 8.51624C5.468 8.40314 5.468 8.40314 5.58334 8.2878C5.60165 8.15242 5.60165 8.15242 5.5999 7.99359C5.60106 7.90142 5.60106 7.90142 5.60224 7.80738C5.60255 7.74058 5.60285 7.67378 5.60317 7.60496C5.60401 7.53622 5.60485 7.46749 5.60572 7.39666C5.60841 7.17586 5.61038 6.95505 5.61218 6.73424C5.61456 6.44534 5.61767 6.15646 5.62119 5.86757C5.62149 5.80182 5.6218 5.73607 5.62211 5.66833C5.63186 4.87355 5.75666 4.14381 6.31146 3.537C6.68005 3.19813 7.15459 2.94718 7.65956 2.92423C7.67146 2.85048 7.68335 2.77673 7.69561 2.70075C7.81744 2.16182 8.15376 1.70825 8.58233 1.36706C9.19872 0.981329 9.78173 0.945222 10.493 0.946008ZM8.81933 2.53584C8.62788 2.83515 8.60696 3.17821 8.56273 3.52349C8.52465 3.67398 8.52465 3.67398 8.35164 3.78932C8.24523 3.80873 8.13871 3.82778 8.03168 3.84335C7.49971 3.92122 7.17968 4.05151 6.83052 4.47419C6.62205 4.87509 6.60511 5.2611 6.61019 5.70334C6.61035 5.75773 6.61051 5.81212 6.61068 5.86816C6.61132 6.04031 6.61277 6.21245 6.61424 6.3846C6.61482 6.50197 6.61535 6.61934 6.61582 6.73672C6.61709 7.02306 6.61907 7.30939 6.62145 7.59573C6.96403 7.56718 6.96403 7.56718 7.31353 7.53805C7.32616 7.48215 7.3388 7.42624 7.35182 7.36864C7.78717 5.50272 7.78717 5.50272 8.4235 5.0169C8.9953 4.68663 9.62813 4.82184 10.2404 4.9608C10.7361 5.06644 11.2296 5.15482 11.7327 5.21672C11.8124 5.22668 11.8124 5.22668 11.8937 5.23684C12.5047 5.30869 13.1173 5.34718 13.7323 5.35662C13.7924 5.35766 13.7924 5.35766 13.8537 5.35872C14.017 5.3615 14.1802 5.36426 14.3436 5.36528C15.009 5.37022 15.6946 5.43143 16.1951 5.92321C16.5971 6.40216 16.7226 6.92704 16.7719 7.53805C16.9432 7.55708 17.1144 7.57612 17.2909 7.59573C17.324 5.99791 17.2751 4.64499 16.1951 3.38561C16.1597 3.34376 16.1244 3.3019 16.0879 3.25878C15.3608 2.46801 14.2714 2.01126 13.2145 1.92683C12.9922 1.9193 12.7706 1.91679 12.5482 1.91676C12.4667 1.91635 12.3852 1.9159 12.3037 1.91543C12.1345 1.91466 11.9652 1.91456 11.796 1.9149C11.5806 1.91524 11.3653 1.91347 11.15 1.91114C10.9822 1.90964 10.8145 1.90949 10.6468 1.9097C10.5674 1.9096 10.488 1.90905 10.4087 1.90802C9.7641 1.90051 9.22745 1.99932 8.81933 2.53584ZM8.89232 5.87996C8.53299 6.38403 8.40386 7.00366 8.28675 7.59933C8.25957 7.7371 8.23181 7.87475 8.2034 8.01228C8.19164 8.0722 8.17989 8.13213 8.16778 8.19387C8.11819 8.3544 8.0859 8.42392 7.94793 8.51849C7.83319 8.53447 7.83319 8.53447 7.70349 8.52728C7.65617 8.52568 7.60885 8.52408 7.5601 8.52243C7.46126 8.51743 7.36244 8.51218 7.26363 8.50666C6.9389 8.49625 6.76472 8.53161 6.50611 8.74918C6.26865 8.98004 6.17863 9.23022 6.16007 9.5566C6.20523 9.87506 6.36277 10.0954 6.61154 10.2926C6.80644 10.4037 7.01073 10.4466 7.22972 10.4888C7.41352 10.5515 7.45676 10.5936 7.54422 10.7677C7.58157 10.9454 7.60001 11.1244 7.61991 11.3048C7.77344 12.4737 8.34645 13.5318 9.28657 14.2617C10.2731 14.9869 11.4141 15.294 12.6276 15.1346C13.4878 14.9909 14.2845 14.5829 14.9263 13.9974C14.979 13.9527 14.979 13.9527 15.0327 13.9071C15.8215 13.1917 16.2598 12.0644 16.3393 11.0237C16.342 10.9575 16.342 10.9575 16.3447 10.8901C16.3755 10.7295 16.4261 10.6529 16.5412 10.537C16.6806 10.4909 16.6806 10.4909 16.8403 10.4613C17.1865 10.3769 17.4075 10.2325 17.637 9.96031C17.79 9.67864 17.769 9.39994 17.6946 9.09522C17.5517 8.80389 17.3606 8.6369 17.0602 8.51849C16.8914 8.49796 16.7285 8.5066 16.5592 8.51849C16.1326 8.54798 16.1326 8.54798 15.9365 8.43851C15.8024 8.20732 15.8168 7.98468 15.8167 7.72188C15.8145 7.30095 15.8106 6.94992 15.5193 6.61754C15.4854 6.59063 15.4515 6.56372 15.4166 6.53599C15.3827 6.50818 15.3488 6.48038 15.3138 6.45173C15.1477 6.33923 14.9972 6.31899 14.8023 6.31253C14.754 6.31078 14.7057 6.30903 14.6559 6.30722C14.6035 6.30554 14.5511 6.30387 14.4972 6.30214C14.3845 6.29802 14.2719 6.29387 14.1593 6.28968C14.0708 6.28649 14.0708 6.28649 13.9805 6.28322C12.6045 6.2322 11.2675 6.13928 9.91898 5.84396C9.37731 5.69775 9.37731 5.69775 8.89232 5.87996ZM22.1354 11.8058C22.0054 12.1309 21.8821 12.4467 21.7678 12.7755C21.5991 13.2096 21.4215 13.3593 21 13.554C20.6326 13.6847 20.3053 13.7567 19.9335 13.5976C19.7452 13.506 19.5603 13.4104 19.3783 13.3069C19.3354 13.283 19.2926 13.2592 19.2484 13.2346C19.2102 13.2122 19.1719 13.1899 19.1325 13.1669C19.0204 13.1204 19.0204 13.1204 18.9064 13.1695C18.7728 13.2595 18.6665 13.3586 18.5534 13.4734C18.4882 13.5392 18.4882 13.5392 18.4216 13.6063C18.3768 13.6521 18.332 13.6979 18.2858 13.7451C18.2401 13.7913 18.1943 13.8376 18.1472 13.8852C18.0345 13.9993 17.9221 14.1136 17.81 14.2281C17.8254 14.2589 17.8408 14.2897 17.8567 14.3214C17.9271 14.463 17.9965 14.605 18.0659 14.7472C18.0902 14.7955 18.1144 14.8439 18.1395 14.8938C18.3225 15.2717 18.435 15.5714 18.3394 15.9948C18.0615 16.7385 18.0615 16.7385 17.81 16.9387C17.5451 17.0513 17.278 17.1429 17.0026 17.2271C17.0026 17.2651 17.0026 17.3032 17.0026 17.3424C17.3771 17.4413 17.7518 17.5398 18.1265 17.6381C18.254 17.6716 18.3815 17.7052 18.509 17.7388C18.692 17.7871 18.8751 17.8351 19.0583 17.8831C19.144 17.9058 19.144 17.9058 19.2314 17.929C19.2845 17.9428 19.3376 17.9567 19.3923 17.971C19.4391 17.9833 19.4858 17.9956 19.534 18.0082C19.663 18.0406 19.663 18.0406 19.8285 18.0345C19.8418 17.9746 19.8551 17.9147 19.8688 17.8529C20.0596 17.0242 20.3533 16.2578 21.08 15.7512C21.9082 15.2436 22.7199 15.0791 23.6775 15.2462C24.1388 15.3749 24.6038 15.5956 24.9429 15.9418C25.0151 16.0294 25.0151 16.0294 25.1344 16.016C25.15 16.049 25.1656 16.0821 25.1817 16.1162C25.2509 16.2488 25.3296 16.3659 25.4156 16.4881C25.9161 17.2352 26.053 18.0415 25.8806 18.9248C25.6629 19.7832 25.1843 20.3988 24.4423 20.8605C24.0091 21.0747 23.6167 21.2147 23.131 21.2121C23.0694 21.212 23.0079 21.2118 22.9445 21.2116C22.8809 21.2111 22.8173 21.2106 22.7518 21.2101C22.6871 21.2098 22.6224 21.2096 22.5557 21.2093C22.3964 21.2086 22.2371 21.2077 22.0778 21.2065C22.2258 22.0152 22.3759 22.8236 22.5306 23.6311C22.5459 23.7113 22.5612 23.7915 22.5763 23.8718C22.5977 23.9844 22.6193 24.097 22.641 24.2095C22.6595 24.3066 22.6595 24.3066 22.6784 24.4056C22.6976 24.5471 22.6976 24.5471 22.7698 24.6092C22.9254 24.6134 23.0794 24.6145 23.2348 24.6128C23.3004 24.6124 23.3004 24.6124 23.3674 24.612C23.4758 24.6113 23.5842 24.6103 23.6926 24.6092C23.7251 24.5287 23.7575 24.4482 23.7899 24.3677C23.811 24.3156 23.8321 24.2635 23.8539 24.2098C23.9024 24.0858 23.9485 23.9609 23.9927 23.8353C24.0162 23.7696 24.0397 23.7038 24.0639 23.636C24.0852 23.5743 24.1065 23.5126 24.1285 23.449C24.2796 23.1467 24.5299 23.0228 24.8316 22.8934C24.8872 22.8688 24.9429 22.8441 25.0001 22.8186C25.4991 22.6757 25.8312 22.79 26.2771 23.0304C26.3719 23.0812 26.4672 23.1313 26.5629 23.1804C26.6043 23.2028 26.6457 23.2251 26.6884 23.2482C26.807 23.2949 26.807 23.2949 26.9234 23.2441C27.1453 23.095 27.3272 22.904 27.517 22.7168C27.5605 22.6757 27.6039 22.6347 27.6487 22.5923C27.6895 22.5522 27.7303 22.512 27.7723 22.4706C27.8098 22.4342 27.8473 22.3977 27.8859 22.3602C27.9754 22.2468 27.9754 22.2468 27.949 22.0978C27.8873 21.9091 27.7961 21.7448 27.7009 21.5706C27.4876 21.1558 27.3676 20.8425 27.4931 20.3822C27.7715 19.5977 27.7715 19.5977 28.1592 19.4068C28.327 19.3416 28.4957 19.2834 28.6669 19.2276C28.7826 19.1883 28.8982 19.1489 29.0138 19.1093C29.0903 19.0841 29.0903 19.0841 29.1684 19.0583C29.2848 19.0251 29.2848 19.0251 29.3445 18.9573C29.3496 18.8461 29.3507 18.7348 29.3502 18.6236C29.35 18.5562 29.3498 18.4887 29.3496 18.4192C29.3491 18.3481 29.3486 18.2771 29.3481 18.2039C29.3477 18.097 29.3477 18.097 29.3473 17.988C29.3467 17.8112 29.3457 17.6345 29.3445 17.4578C29.0563 17.325 28.7738 17.2047 28.4686 17.1153C28.1143 16.9975 27.9022 16.9019 27.7049 16.5688C27.5119 16.1817 27.3644 15.7843 27.4799 15.3529C27.5969 15.0466 27.752 14.7582 27.911 14.4719C27.971 14.3157 27.9607 14.2678 27.9027 14.1128C27.8058 13.992 27.8058 13.992 27.6826 13.8758C27.6386 13.8323 27.5945 13.7888 27.5491 13.744C27.5028 13.6991 27.4566 13.6543 27.4089 13.6081C27.3624 13.5624 27.3159 13.5167 27.268 13.4696C27.1531 13.3567 27.0379 13.2444 26.9223 13.1323C26.6572 13.2117 26.4322 13.3228 26.1905 13.4567C25.7531 13.6831 25.4259 13.7368 24.9515 13.5978C24.6035 13.4679 24.3486 13.3454 24.154 13.017C24.0917 12.868 24.0366 12.7188 23.9861 12.5655C23.8979 12.3088 23.7934 12.0579 23.6926 11.8058C23.1787 11.8058 22.6649 11.8058 22.1354 11.8058ZM10.0241 15.7853C9.99407 16.4335 10.0701 16.9964 10.4855 17.5154C10.887 17.945 11.3463 18.165 11.9273 18.2255C12.5022 18.2105 12.9659 17.9859 13.3678 17.586C13.8585 17.047 13.9182 16.4928 13.8882 15.7853C13.8016 15.8092 13.8016 15.8092 13.7132 15.8337C13.6358 15.8548 13.5583 15.8759 13.4809 15.897C13.443 15.9075 13.4052 15.918 13.3661 15.9289C12.338 16.2074 11.2708 16.1237 10.2548 15.8429C10.178 15.8235 10.1011 15.8042 10.0241 15.7853ZM21.1732 17.0007C20.9885 17.271 20.8417 17.5914 20.809 17.9192C20.8013 17.9569 20.7936 17.9947 20.7858 18.0336C20.7666 18.1861 20.7667 18.2896 20.809 18.4382C20.9408 18.5792 21.0847 18.6942 21.2347 18.8156C21.5297 19.0925 21.7122 19.4806 21.7714 19.88C21.8628 20.0891 21.9122 20.1064 22.1174 20.1936C22.6678 20.3605 23.2699 20.3745 23.796 20.1258C24.3861 19.7885 24.7568 19.3793 24.9614 18.7266C25.093 18.1457 25.0037 17.5934 24.6994 17.0757C24.3594 16.6151 23.9092 16.2661 23.3466 16.1313C22.4508 16.0366 21.7441 16.2991 21.1732 17.0007ZM9.15906 17.1694C9.08953 17.2393 9.02128 17.3104 8.9536 17.3821C8.3258 18.011 7.51482 18.1475 6.67665 18.3641C6.60151 18.3837 6.52638 18.4034 6.45126 18.4231C6.1366 18.5056 5.8219 18.588 5.50693 18.6693C5.31259 18.7195 5.11842 18.7703 4.92434 18.8215C4.81631 18.8499 4.70809 18.8775 4.59987 18.9052C3.76399 19.1226 3.76399 19.1226 3.17367 19.7118C3.08883 19.9149 3.04038 20.1192 2.99578 20.3339C2.98611 20.379 2.97644 20.424 2.96647 20.4704C2.93467 20.6195 2.9036 20.7688 2.87272 20.9181C2.86212 20.9692 2.85151 21.0203 2.84058 21.0729C2.67715 21.8624 2.52024 22.6533 2.36251 23.444C2.30853 23.7143 2.25414 23.9846 2.1994 24.2549C2.13268 24.5843 2.06668 24.9138 2.00116 25.2434C1.9763 25.3679 1.95119 25.4924 1.92583 25.6168C1.63688 26.7522 1.63688 26.7522 1.8693 27.8515C2.11494 28.1644 2.37033 28.3718 2.75738 28.4733C2.95803 28.4885 3.15775 28.4867 3.35888 28.4845C3.44456 28.4843 3.44456 28.4843 3.53196 28.484C3.71353 28.4834 3.89508 28.482 4.07664 28.4805C4.2001 28.4799 4.32355 28.4794 4.44701 28.4789C4.74889 28.4776 5.05077 28.4757 5.35265 28.4733C5.32117 27.717 5.23093 26.9699 5.13759 26.2192C5.11016 25.9983 5.08314 25.7774 5.05622 25.5564C4.97973 24.9289 4.90268 24.3015 4.82501 23.6742C4.77729 23.2888 4.73021 22.9033 4.68346 22.5178C4.66561 22.3715 4.64753 22.2253 4.62923 22.0791C4.60368 21.875 4.57887 21.6708 4.55422 21.4665C4.54655 21.4067 4.53888 21.3469 4.53098 21.2853C4.47798 20.8365 4.42758 20.3722 4.71825 19.9954C4.8962 19.7729 5.07951 19.7021 5.35265 19.6493C5.53595 19.6337 5.71818 19.6335 5.90206 19.6343C5.9834 19.634 5.9834 19.634 6.06639 19.6336C6.24751 19.633 6.42862 19.6333 6.60974 19.6335C6.73983 19.6332 6.86992 19.6329 7.00001 19.6326C7.35295 19.6318 7.70589 19.6318 8.05883 19.6319C8.35351 19.632 8.64819 19.6317 8.94287 19.6315C9.67773 19.6308 10.4126 19.6308 11.1474 19.6312C11.7852 19.6315 12.423 19.6308 13.0609 19.6297C13.7163 19.6286 14.3717 19.6282 15.0272 19.6284C15.3949 19.6285 15.7627 19.6283 16.1305 19.6275C16.4762 19.6268 16.822 19.6269 17.1677 19.6277C17.2946 19.6278 17.4215 19.6276 17.5483 19.6272C17.7216 19.6266 17.8948 19.627 18.068 19.6278C18.1181 19.6273 18.1683 19.6269 18.22 19.6265C18.6078 19.6299 18.8769 19.7038 19.1833 19.9557C19.5258 20.3765 19.418 20.8771 19.3671 21.3795C19.3199 21.8215 19.2661 22.2626 19.2115 22.7037C19.1844 22.9231 19.1576 23.1426 19.1308 23.362C19.0789 23.7876 19.0267 24.2131 18.9744 24.6387C18.903 25.2191 18.8318 25.7996 18.7611 26.3801C18.7347 26.5959 18.708 26.8117 18.6813 27.0275C18.6652 27.1597 18.649 27.292 18.6329 27.4243C18.6255 27.4839 18.618 27.5436 18.6103 27.605C18.575 27.8969 18.5514 28.1792 18.5597 28.4733C18.9198 28.479 19.2799 28.4832 19.64 28.4859C19.7624 28.4871 19.8847 28.4887 20.007 28.4907C20.1835 28.4935 20.36 28.4948 20.5366 28.4958C20.6177 28.4976 20.6177 28.4976 20.7005 28.4994C21.1249 28.4996 21.4707 28.4036 21.807 28.1374C22.0589 27.8384 22.2564 27.5381 22.2482 27.1336C22.2065 26.756 22.1422 26.3857 22.0685 26.0131C22.0559 25.9485 22.0433 25.884 22.0303 25.8174C21.989 25.6055 21.9472 25.3937 21.9054 25.1819C21.8763 25.0338 21.8472 24.8857 21.8181 24.7377C21.7572 24.4281 21.696 24.1185 21.6347 23.809C21.564 23.4522 21.4941 23.0953 21.4245 22.7383C21.3572 22.3933 21.2891 22.0485 21.2208 21.7038C21.1919 21.5577 21.1633 21.4116 21.1349 21.2655C21.0951 21.0611 21.0545 20.8569 21.0137 20.6527C21.0022 20.5927 20.9907 20.5327 20.9789 20.4709C20.8829 19.9983 20.751 19.5709 20.36 19.2625C19.868 18.9753 19.2182 18.8835 18.6706 18.741C18.5953 18.7212 18.52 18.7014 18.4448 18.6816C18.1294 18.5985 17.8141 18.5157 17.4985 18.4335C17.3038 18.3827 17.1093 18.3316 16.9148 18.2801C16.8064 18.2516 16.6978 18.2235 16.5893 18.1954C16.1211 18.0713 15.6466 17.9412 15.2616 17.6344C15.2274 17.6077 15.1933 17.581 15.1582 17.5535C15.0033 17.4263 14.8494 17.2979 14.6956 17.1694C14.6712 17.2223 14.6467 17.2753 14.6215 17.3298C14.2391 18.1386 13.7831 18.6502 12.9222 18.9789C12.1244 19.2433 11.3592 19.1501 10.5984 18.8151C9.90687 18.4561 9.49443 17.8835 9.21673 17.1694C9.1977 17.1694 9.17866 17.1694 9.15906 17.1694ZM5.468 20.5721C5.40454 20.7625 5.41427 20.8594 5.43803 21.0567C5.44563 21.1214 5.45324 21.1861 5.46107 21.2528C5.46981 21.3238 5.47856 21.3948 5.48757 21.468C5.49647 21.5427 5.50537 21.6175 5.51454 21.6945C5.53897 21.8996 5.56389 22.1046 5.58891 22.3097C5.61499 22.524 5.64068 22.7383 5.66642 22.9527C5.70969 23.3125 5.75328 23.6724 5.79705 24.0322C5.84772 24.4487 5.89794 24.8652 5.94791 25.2818C5.99592 25.6821 6.04422 26.0823 6.09267 26.4825C6.11331 26.6531 6.13386 26.8237 6.15434 26.9943C6.1829 27.2321 6.21189 27.4699 6.24092 27.7077C6.24943 27.7789 6.25794 27.8502 6.26671 27.9236C6.27464 27.9879 6.28257 28.0523 6.29073 28.1186C6.29756 28.1749 6.30439 28.2312 6.31142 28.2892C6.32027 28.4139 6.32027 28.4139 6.39076 28.4733C6.53518 28.4789 6.67801 28.4808 6.82246 28.4802C6.89106 28.4803 6.89106 28.4803 6.96106 28.4804C7.1155 28.4805 7.26994 28.4801 7.42438 28.4798C7.53462 28.4798 7.64486 28.4798 7.7551 28.4798C8.05536 28.4799 8.35563 28.4795 8.6559 28.4791C8.96933 28.4788 9.28275 28.4787 9.59618 28.4787C10.1902 28.4785 10.7841 28.478 11.3781 28.4774C12.0541 28.4768 12.7301 28.4765 13.4062 28.4762C14.7972 28.4756 16.1882 28.4746 17.5793 28.4733C17.7011 27.4772 17.8224 26.4811 17.9432 25.4849C17.9993 25.0224 18.0555 24.5599 18.1122 24.0974C18.1615 23.6943 18.2105 23.2912 18.2592 22.8881C18.285 22.6746 18.311 22.4612 18.3373 22.2477C18.3666 22.0096 18.3953 21.7713 18.4239 21.5331C18.4371 21.4268 18.4371 21.4268 18.4507 21.3183C18.4583 21.2534 18.466 21.1886 18.4739 21.1217C18.4842 21.0372 18.4842 21.0372 18.4947 20.951C18.51 20.7872 18.51 20.7872 18.4444 20.5721C14.1622 20.5721 9.87996 20.5721 5.468 20.5721Z" fill="#FB65A6"/>
</svg>
