<svg width="24" height="24" viewBox="0 0 24 24" fill="none" xmlns="http://www.w3.org/2000/svg">
<path d="M12.0262 0.443359C5.59765 0.443359 0.337891 5.69143 0.337891 12.1551C0.337891 17.9993 4.61583 22.85 10.2029 23.7266V15.5447H7.23402V12.1551H10.2029V9.57196C10.2029 6.63819 11.9444 5.02519 14.6211 5.02519C15.8951 5.02519 17.2276 5.24727 17.2276 5.24727V8.1343H15.7548C14.3055 8.1343 13.8496 9.0343 13.8496 9.9577V12.1551H17.099L16.573 15.5447H13.8496V23.7266C16.6039 23.2915 19.112 21.8863 20.921 19.7642C22.73 17.6423 23.7209 14.9435 23.7146 12.1551C23.7146 5.69143 18.4548 0.443359 12.0262 0.443359Z" fill="white"/>
</svg>
