<svg width="15" height="15" viewBox="0 0 15 15" fill="none" xmlns="http://www.w3.org/2000/svg">
<path d="M14.6607 3.05484C14.6606 2.66309 14.5834 2.27518 14.4334 1.91328C14.2834 1.55138 14.0636 1.22259 13.7865 0.945688C13.5093 0.668786 13.1804 0.449203 12.8184 0.299486C12.4563 0.149769 12.0684 0.0728527 11.6766 0.0731323L7.16294 0.0749064C6.90811 0.087831 6.66802 0.198255 6.49236 0.383316C6.31671 0.568377 6.21894 0.813901 6.21931 1.06905C6.21968 1.32421 6.31816 1.56944 6.49436 1.75399C6.67055 1.93854 6.91097 2.04827 7.16583 2.06045L11.2796 2.05813L0.436112 12.9003C0.249779 13.0868 0.145157 13.3396 0.14526 13.6033C0.145364 13.8669 0.250185 14.1197 0.436665 14.306C0.623145 14.4923 0.876007 14.5969 1.13963 14.5968C1.40324 14.5967 1.65603 14.4919 1.84236 14.3054L12.6739 3.47803L12.6769 7.5672C12.6771 7.83087 12.782 8.08366 12.9686 8.26997C13.1552 8.45627 13.4082 8.56083 13.6718 8.56063C13.9355 8.56043 14.1883 8.4555 14.3746 8.26892C14.5609 8.08233 14.6655 7.82938 14.6653 7.56571L14.6607 3.05484Z" fill="white"/>
</svg>
