<svg width="29" height="28" viewBox="0 0 29 28" fill="none" xmlns="http://www.w3.org/2000/svg">
<path d="M15.9236 0.0888672C23.041 0.0888672 28.8643 5.9122 28.8643 13.0296V15.0515C28.8643 22.1689 23.0409 27.9922 15.9236 27.9922H13.9017C6.78427 27.9922 0.960938 22.1689 0.960938 15.0515V13.0296C0.960938 5.9122 6.78427 0.0888672 13.9017 0.0888672H15.9236ZM15.167 7.10211L14.987 7.10188C13.4877 7.10188 11.9885 7.15143 11.9885 7.15143C9.79869 7.15143 8.0235 8.92662 8.0235 11.1164C8.0235 11.1164 7.97799 12.4038 7.9742 13.7855L7.97395 13.9662C7.97395 15.5133 8.0235 17.1134 8.0235 17.1134C8.0235 19.3032 9.79869 21.0784 11.9885 21.0784C11.9885 21.0784 13.3902 21.1279 14.8383 21.1279C16.3854 21.1279 18.035 21.0784 18.035 21.0784C20.2248 21.0784 21.9504 19.3528 21.9504 17.163C21.9504 17.163 22 15.5809 22 14.0654L21.9991 13.7097C21.9924 12.3499 21.9504 11.0668 21.9504 11.0668C21.9504 8.87703 20.2248 7.15143 18.035 7.15143C18.035 7.15143 16.6076 7.10576 15.167 7.10211ZM14.987 8.36419C16.2164 8.36419 17.7927 8.40485 17.7927 8.40485C19.5883 8.40485 20.697 9.51352 20.697 11.3092C20.697 11.3092 20.7376 12.8585 20.7376 14.0742C20.7376 15.317 20.697 16.9205 20.697 16.9205C20.697 18.7162 19.5883 19.8248 17.7927 19.8248C17.7927 19.8248 16.3987 19.859 15.1892 19.8647L14.8651 19.8655C13.6776 19.8655 12.2308 19.8248 12.2308 19.8248C10.4352 19.8248 9.27695 18.6666 9.27695 16.871C9.27695 16.871 9.23629 15.2616 9.23629 13.9929C9.23629 12.8055 9.27695 11.3092 9.27695 11.3092C9.27695 9.51352 10.4352 8.40485 12.2308 8.40485C12.2308 8.40485 13.7576 8.36419 14.987 8.36419ZM14.9869 10.5224C13.0029 10.5224 11.3945 12.1308 11.3945 14.1148C11.3945 16.0989 13.0029 17.7073 14.9869 17.7073C16.971 17.7073 18.5794 16.0989 18.5794 14.1148C18.5794 12.1308 16.971 10.5224 14.9869 10.5224ZM14.9869 11.7772C16.278 11.7772 17.3246 12.8238 17.3246 14.1148C17.3246 15.4059 16.278 16.4525 14.9869 16.4525C13.6959 16.4525 12.6493 15.4059 12.6493 14.1148C12.6493 12.8238 13.6959 11.7772 14.9869 11.7772ZM18.7513 9.52547C18.2719 9.52547 17.8832 9.91604 17.8832 10.3978C17.8832 10.8796 18.2719 11.2701 18.7513 11.2701C19.2307 11.2701 19.6193 10.8796 19.6193 10.3978C19.6193 9.91601 19.2307 9.52547 18.7513 9.52547Z" fill="white"/>
</svg>
