<svg width="29" height="29" viewBox="0 0 29 29" fill="none" xmlns="http://www.w3.org/2000/svg">
<path d="M14.3249 0.0585938C6.57767 0.0585938 0.298828 6.33743 0.298828 14.0846C0.298828 21.8318 6.57767 28.1106 14.3249 28.1106C22.072 28.1106 28.3509 21.8318 28.3509 14.0846C28.3509 6.33743 22.072 0.0585938 14.3249 0.0585938ZM10.4019 19.9525H7.66797V11.2027H10.4019V19.9525ZM8.96099 10.1069H8.93908C7.94739 10.1069 7.30636 9.4385 7.30636 8.58927C7.30636 7.7236 7.96931 7.07161 8.97743 7.07161C9.98555 7.07161 10.6047 7.7236 10.6266 8.58927C10.6321 9.43302 9.99103 10.1069 8.96099 10.1069ZM21.3379 19.9525H18.2368V15.427C18.2368 14.2435 17.7547 13.4326 16.6863 13.4326C15.8699 13.4326 15.4152 13.9805 15.207 14.5065C15.1303 14.6928 15.1412 14.9558 15.1412 15.2242V19.9525H12.0675C12.0675 19.9525 12.1059 11.9314 12.0675 11.2027H15.1412V12.5779C15.322 11.9752 16.3027 11.1205 17.8697 11.1205C19.8147 11.1205 21.3379 12.3807 21.3379 15.0873V19.9525Z" fill="white"/>
</svg>
