<svg width="27" height="27" viewBox="0 0 27 27" fill="none" xmlns="http://www.w3.org/2000/svg">
<g clip-path="url(#clip0_661_698)">
<path d="M13.5001 0.046875C10.5233 0.05015 7.66932 1.23406 5.56429 3.33888C3.45925 5.44371 2.27506 8.29756 2.27148 11.2744C2.27148 14.1656 4.51023 18.6904 8.92586 24.7226C9.45153 25.4428 10.1398 26.0286 10.9347 26.4325C11.7295 26.8364 12.6085 27.0469 13.5001 27.0469C14.3917 27.0469 15.2707 26.8364 16.0656 26.4325C16.8604 26.0286 17.5487 25.4428 18.0744 24.7226C22.49 18.6904 24.7287 14.1656 24.7287 11.2744C24.7252 8.29756 23.541 5.44371 21.4359 3.33888C19.3309 1.23406 16.4769 0.05015 13.5001 0.046875ZM13.5001 15.7496C12.6101 15.7496 11.7401 15.4857 11 14.9912C10.26 14.4968 9.68325 13.794 9.34265 12.9717C9.00206 12.1494 8.91294 11.2446 9.08658 10.3717C9.26021 9.49881 9.68879 8.69698 10.3181 8.06765C10.9475 7.43831 11.7493 7.00973 12.6222 6.83609C13.4951 6.66246 14.3999 6.75157 15.2222 7.09217C16.0445 7.43276 16.7473 8.00954 17.2417 8.74956C17.7362 9.48958 18.0001 10.3596 18.0001 11.2496C18.0001 12.4431 17.526 13.5877 16.6821 14.4316C15.8382 15.2755 14.6936 15.7496 13.5001 15.7496Z" fill="#F763A3"/>
</g>
<defs>
<clipPath id="clip0_661_698">
<rect width="27" height="27" fill="white"/>
</clipPath>
</defs>
</svg>
