<svg width="736" height="614" viewBox="0 0 736 614" fill="none" xmlns="http://www.w3.org/2000/svg">
<g opacity="0.33">
<path d="M0.931641 0.398438V613.688" stroke="white" stroke-opacity="0.1" stroke-width="0.776316"/>
<path d="M1.58984 121.324L735.386 121.249" stroke="white" stroke-opacity="0.06" stroke-width="0.776316"/>
<path d="M1.58398 92.623L735.38 92.5476" stroke="white" stroke-opacity="0.06" stroke-width="0.776316"/>
<path d="M1.06641 45.041L735.386 44.9677" stroke="white" stroke-opacity="0.1" stroke-width="0.776316"/>
<path d="M1.0625 14.8281L735.382 14.7548" stroke="white" stroke-opacity="0.1" stroke-width="0.776316"/>
<path d="M1.58984 272.381L735.386 272.305" stroke="white" stroke-opacity="0.06" stroke-width="0.776316"/>
<path d="M1.58398 243.68L735.38 243.604" stroke="white" stroke-opacity="0.06" stroke-width="0.776316"/>
<path d="M1.58008 213.467L735.376 213.391" stroke="white" stroke-opacity="0.06" stroke-width="0.776316"/>
<path d="M1.57422 183.258L735.37 183.182" stroke="white" stroke-opacity="0.06" stroke-width="0.776316"/>
<path d="M1.56836 153.045L735.364 152.969" stroke="white" stroke-opacity="0.06" stroke-width="0.776316"/>
<path d="M1.58984 423.436L735.386 423.36" stroke="white" stroke-opacity="0.06" stroke-width="0.776316"/>
<path d="M1.58398 394.734L735.38 394.659" stroke="white" stroke-opacity="0.06" stroke-width="0.776316"/>
<path d="M1.58008 364.523L735.376 364.448" stroke="white" stroke-opacity="0.06" stroke-width="0.776316"/>
<path d="M1.57422 334.314L735.37 334.239" stroke="white" stroke-opacity="0.06" stroke-width="0.776316"/>
<path d="M1.56836 304.102L735.364 304.026" stroke="white" stroke-opacity="0.06" stroke-width="0.776316"/>
<path d="M1.58984 574.492L735.386 574.417" stroke="white" stroke-opacity="0.06" stroke-width="0.776316"/>
<path d="M1.58398 545.793L735.38 545.718" stroke="white" stroke-opacity="0.06" stroke-width="0.776316"/>
<path d="M1.58008 515.582L735.376 515.507" stroke="white" stroke-opacity="0.06" stroke-width="0.776316"/>
<path d="M1.57422 485.371L735.37 485.296" stroke="white" stroke-opacity="0.06" stroke-width="0.776316"/>
<path d="M1.56836 455.158L735.364 455.083" stroke="white" stroke-opacity="0.06" stroke-width="0.776316"/>
<path d="M23.1621 0.398438V613.688" stroke="white" stroke-opacity="0.1" stroke-width="0.776316"/>
<path d="M45.3926 0.398438V613.688" stroke="white" stroke-opacity="0.1" stroke-width="0.776316"/>
<path d="M68.1836 0.398438V613.688" stroke="white" stroke-opacity="0.1" stroke-width="0.776316"/>
<path d="M90.418 0.398438V613.688" stroke="white" stroke-opacity="0.1" stroke-width="0.776316"/>
<path d="M112.646 0.398438V613.688" stroke="white" stroke-opacity="0.1" stroke-width="0.776316"/>
<path d="M134.879 0.398438V613.688" stroke="white" stroke-opacity="0.1" stroke-width="0.776316"/>
<path d="M157.109 0.398438V613.688" stroke="white" stroke-opacity="0.1" stroke-width="0.776316"/>
<path d="M179.342 0.398438V613.688" stroke="white" stroke-opacity="0.1" stroke-width="0.776316"/>
<path d="M201.574 0.398438V613.688" stroke="white" stroke-opacity="0.1" stroke-width="0.776316"/>
<path d="M223.809 0.398438V613.688" stroke="white" stroke-opacity="0.1" stroke-width="0.776316"/>
<path d="M268.271 0.398438V613.688" stroke="white" stroke-opacity="0.1" stroke-width="0.776316"/>
<path d="M290.504 0.398438V613.688" stroke="white" stroke-opacity="0.1" stroke-width="0.776316"/>
<path d="M312.734 0.398438V613.688" stroke="white" stroke-opacity="0.1" stroke-width="0.776316"/>
<path d="M334.967 0.398438V613.688" stroke="white" stroke-opacity="0.1" stroke-width="0.776316"/>
<path d="M357.201 0.398438V613.688" stroke="white" stroke-opacity="0.1" stroke-width="0.776316"/>
<path d="M379.432 0.398438V613.688" stroke="white" stroke-opacity="0.1" stroke-width="0.776316"/>
<path d="M401.662 0.398438V613.688" stroke="white" stroke-opacity="0.1" stroke-width="0.776316"/>
<path d="M423.895 0.398438V613.688" stroke="white" stroke-opacity="0.1" stroke-width="0.776316"/>
<path d="M446.127 0.398438V613.688" stroke="white" stroke-opacity="0.1" stroke-width="0.776316"/>
<path d="M468.359 0.398438V613.688" stroke="white" stroke-opacity="0.1" stroke-width="0.776316"/>
<path d="M490.592 0.398438V613.688" stroke="white" stroke-opacity="0.1" stroke-width="0.776316"/>
<path d="M512.822 0.398438V613.688" stroke="white" stroke-opacity="0.1" stroke-width="0.776316"/>
<path d="M535.057 0.398438V613.688" stroke="white" stroke-opacity="0.1" stroke-width="0.776316"/>
<path d="M557.289 0.398438V613.688" stroke="white" stroke-opacity="0.1" stroke-width="0.776316"/>
<path d="M579.518 0.398438V613.688" stroke="white" stroke-opacity="0.1" stroke-width="0.776316"/>
<path d="M601.75 0.398438V613.688" stroke="white" stroke-opacity="0.1" stroke-width="0.776316"/>
<path d="M623.984 0.398438V613.688" stroke="white" stroke-opacity="0.1" stroke-width="0.776316"/>
<path d="M646.217 0.398438V613.688" stroke="white" stroke-opacity="0.1" stroke-width="0.776316"/>
<path d="M668.447 0.398438V613.688" stroke="white" stroke-opacity="0.1" stroke-width="0.776316"/>
<path d="M690.68 0.398438V613.688" stroke="white" stroke-opacity="0.1" stroke-width="0.776316"/>
<path d="M712.912 0.398438V613.688" stroke="white" stroke-opacity="0.1" stroke-width="0.776316"/>
<path d="M735.145 0.398438V613.688" stroke="white" stroke-opacity="0.1" stroke-width="0.776316"/>
</g>
</svg>
