<svg width="26" height="26" viewBox="0 0 26 26" fill="none" xmlns="http://www.w3.org/2000/svg">
<g clip-path="url(#clip0_661_671)">
<path d="M24.563 11.5949C24.2871 11.5949 24.0226 11.4853 23.8275 11.2903C23.6325 11.0952 23.5229 10.8307 23.5229 10.5548C23.5207 8.34875 22.6434 6.23368 21.0834 4.67376C19.5235 3.11383 17.4084 2.23651 15.2024 2.2343C14.9265 2.2343 14.662 2.12472 14.4669 1.92967C14.2719 1.73462 14.1623 1.47008 14.1623 1.19424C14.1623 0.918396 14.2719 0.653852 14.4669 0.458802C14.662 0.263752 14.9265 0.154174 15.2024 0.154174C17.9599 0.157202 20.6036 1.25395 22.5534 3.2038C24.5032 5.15364 25.6 7.79732 25.603 10.5548C25.603 10.8307 25.4934 11.0952 25.2984 11.2903C25.1033 11.4853 24.8388 11.5949 24.563 11.5949ZM21.4428 10.5548C21.4428 8.89976 20.7853 7.3125 19.615 6.1422C18.4447 4.9719 16.8574 4.31443 15.2024 4.31443C14.9265 4.31443 14.662 4.42401 14.4669 4.61906C14.2719 4.81411 14.1623 5.07865 14.1623 5.35449C14.1623 5.63034 14.2719 5.89488 14.4669 6.08993C14.662 6.28498 14.9265 6.39456 15.2024 6.39456C16.3057 6.39456 17.3639 6.83287 18.1441 7.61307C18.9243 8.39327 19.3626 9.45145 19.3626 10.5548C19.3626 10.8307 19.4722 11.0952 19.6673 11.2903C19.8623 11.4853 20.1269 11.5949 20.4027 11.5949C20.6785 11.5949 20.9431 11.4853 21.1381 11.2903C21.3332 11.0952 21.4428 10.8307 21.4428 10.5548ZM23.7132 23.2062L24.6597 22.1151C25.2621 21.5108 25.6004 20.6923 25.6004 19.8389C25.6004 18.9856 25.2621 18.1671 24.6597 17.5628C24.6274 17.5305 22.125 15.6054 22.125 15.6054C21.5245 15.0337 20.7267 14.7153 19.8975 14.7165C19.0684 14.7177 18.2715 15.0382 17.6725 15.6116L15.6902 17.2819C14.072 16.6122 12.6021 15.6295 11.3648 14.3901C10.1276 13.1507 9.14734 11.6791 8.48044 10.0597L10.1445 8.08362C10.7184 7.48473 11.0393 6.68773 11.0407 5.8583C11.042 5.02888 10.7237 4.23084 10.1518 3.63007C10.1518 3.63007 8.22458 1.13079 8.19234 1.09855C7.59894 0.501293 6.79437 0.161477 5.95249 0.152525C5.1106 0.143573 4.299 0.466204 3.69303 1.05071L2.49695 2.09077C-4.56924 10.2886 10.6469 25.3872 19.1151 25.1157C19.9702 25.1207 20.8177 24.9542 21.6074 24.6263C22.3972 24.2983 23.1132 23.8154 23.7132 23.2062Z" fill="#F763A3"/>
</g>
<defs>
<clipPath id="clip0_661_671">
<rect width="24.9615" height="24.9615" fill="white" transform="translate(0.640625 0.154297)"/>
</clipPath>
</defs>
</svg>
