<svg width="29" height="24" viewBox="0 0 29 24" fill="none" xmlns="http://www.w3.org/2000/svg">
<path d="M25.8087 6.3755C25.8198 6.62211 25.8254 6.86986 25.8254 7.11871C25.8254 14.7093 20.0473 23.4615 9.48323 23.4615C6.23922 23.4615 3.21962 22.5105 0.677734 20.8807C1.12766 20.934 1.58428 20.9613 2.04812 20.9613C4.73942 20.9613 7.21572 20.043 9.18216 18.5021C6.66805 18.456 4.54722 16.7952 3.81622 14.5132C4.16731 14.5805 4.52673 14.6166 4.89721 14.6166C5.42045 14.6166 5.92812 14.546 6.41032 14.4149C3.78291 13.8871 1.80256 11.5658 1.80256 8.78288C1.80256 8.75844 1.80256 8.73456 1.80316 8.71067C2.57749 9.1406 3.46294 9.39893 4.40499 9.4289C2.86355 8.39908 1.84978 6.64095 1.84978 4.64789C1.84978 3.59528 2.1325 2.60874 2.62741 1.7605C5.46039 5.23556 9.69198 7.52191 14.4658 7.76188C14.3681 7.34138 14.3169 6.90312 14.3169 6.45264C14.3169 3.28084 16.8888 0.708984 20.0606 0.708984C21.7137 0.708984 23.2057 1.40667 24.2533 2.52262C25.562 2.26543 26.7907 1.78718 27.9006 1.12889C27.4717 2.4704 26.5618 3.59577 25.3754 4.30677C26.5374 4.16788 27.6451 3.85909 28.6749 3.40247C27.905 4.55403 26.9308 5.56555 25.8087 6.3755Z" fill="white"/>
</svg>
