<svg width="1054" height="807" viewBox="0 0 1054 807" fill="none" xmlns="http://www.w3.org/2000/svg">
<g opacity="0.5">
<path d="M11.9941 0.958984V806.735" stroke="white" stroke-opacity="0.1" stroke-width="1.01997"/>
<path d="M0.703125 159.836L998.191 159.737" stroke="white" stroke-opacity="0.06" stroke-width="1.01997"/>
<path d="M0.697266 122.127L998.185 122.028" stroke="white" stroke-opacity="0.06" stroke-width="1.01997"/>
<path d="M12.1738 59.6094L1053.56 59.512" stroke="white" stroke-opacity="0.1" stroke-width="1.01997"/>
<path d="M12.168 19.916L1053.55 19.8186" stroke="white" stroke-opacity="0.1" stroke-width="1.01997"/>
<path d="M0.703125 358.303L998.191 358.204" stroke="white" stroke-opacity="0.06" stroke-width="1.01997"/>
<path d="M0.697266 320.594L998.185 320.495" stroke="white" stroke-opacity="0.06" stroke-width="1.01997"/>
<path d="M0.689453 280.9L998.177 280.801" stroke="white" stroke-opacity="0.06" stroke-width="1.01997"/>
<path d="M0.683594 241.207L998.171 241.108" stroke="white" stroke-opacity="0.06" stroke-width="1.01997"/>
<path d="M0.675781 201.514L998.163 201.415" stroke="white" stroke-opacity="0.06" stroke-width="1.01997"/>
<path d="M0.703125 556.77L998.191 556.67" stroke="white" stroke-opacity="0.06" stroke-width="1.01997"/>
<path d="M0.697266 519.061L998.185 518.961" stroke="white" stroke-opacity="0.06" stroke-width="1.01997"/>
<path d="M0.689453 479.367L998.177 479.268" stroke="white" stroke-opacity="0.06" stroke-width="1.01997"/>
<path d="M0.683594 439.674L998.171 439.575" stroke="white" stroke-opacity="0.06" stroke-width="1.01997"/>
<path d="M0.675781 399.98L998.163 399.881" stroke="white" stroke-opacity="0.06" stroke-width="1.01997"/>
<path d="M0.703125 755.236L998.191 755.137" stroke="white" stroke-opacity="0.06" stroke-width="1.01997"/>
<path d="M0.697266 717.527L998.185 717.428" stroke="white" stroke-opacity="0.06" stroke-width="1.01997"/>
<path d="M0.689453 677.834L998.177 677.735" stroke="white" stroke-opacity="0.06" stroke-width="1.01997"/>
<path d="M0.683594 638.141L998.171 638.042" stroke="white" stroke-opacity="0.06" stroke-width="1.01997"/>
<path d="M0.675781 598.449L998.163 598.35" stroke="white" stroke-opacity="0.06" stroke-width="1.01997"/>
<path d="M41.2051 0.958984V806.735" stroke="white" stroke-opacity="0.1" stroke-width="1.01997"/>
<path d="M70.4141 0.958984V806.735" stroke="white" stroke-opacity="0.1" stroke-width="1.01997"/>
<path d="M100.355 0.958984V806.735" stroke="white" stroke-opacity="0.1" stroke-width="1.01997"/>
<path d="M129.566 0.958984V806.735" stroke="white" stroke-opacity="0.1" stroke-width="1.01997"/>
<path d="M158.775 0.958984V806.735" stroke="white" stroke-opacity="0.1" stroke-width="1.01997"/>
<path d="M187.986 0.958984V806.735" stroke="white" stroke-opacity="0.1" stroke-width="1.01997"/>
<path d="M217.193 0.958984V806.735" stroke="white" stroke-opacity="0.1" stroke-width="1.01997"/>
<path d="M246.402 0.958984V806.735" stroke="white" stroke-opacity="0.1" stroke-width="1.01997"/>
<path d="M275.613 0.958984V806.735" stroke="white" stroke-opacity="0.1" stroke-width="1.01997"/>
<path d="M304.824 0.958984V806.735" stroke="white" stroke-opacity="0.1" stroke-width="1.01997"/>
<path d="M363.242 0.958984V806.735" stroke="white" stroke-opacity="0.1" stroke-width="1.01997"/>
<path d="M392.453 0.958984V806.735" stroke="white" stroke-opacity="0.1" stroke-width="1.01997"/>
<path d="M421.662 0.958984V806.735" stroke="white" stroke-opacity="0.1" stroke-width="1.01997"/>
<path d="M450.873 0.958984V806.735" stroke="white" stroke-opacity="0.1" stroke-width="1.01997"/>
<path d="M480.084 0.958984V806.735" stroke="white" stroke-opacity="0.1" stroke-width="1.01997"/>
<path d="M509.291 0.958984V806.735" stroke="white" stroke-opacity="0.1" stroke-width="1.01997"/>
<path d="M538.5 0.958984V806.735" stroke="white" stroke-opacity="0.1" stroke-width="1.01997"/>
<path d="M567.711 0.958984V806.735" stroke="white" stroke-opacity="0.1" stroke-width="1.01997"/>
<path d="M596.92 0.958984V806.735" stroke="white" stroke-opacity="0.1" stroke-width="1.01997"/>
<path d="M626.131 0.958984V806.735" stroke="white" stroke-opacity="0.1" stroke-width="1.01997"/>
<path d="M655.34 0.958984V806.735" stroke="white" stroke-opacity="0.1" stroke-width="1.01997"/>
<path d="M684.549 0.958984V806.735" stroke="white" stroke-opacity="0.1" stroke-width="1.01997"/>
<path d="M713.76 0.958984V806.735" stroke="white" stroke-opacity="0.1" stroke-width="1.01997"/>
<path d="M742.971 0.958984V806.735" stroke="white" stroke-opacity="0.1" stroke-width="1.01997"/>
<path d="M772.18 0.958984V806.735" stroke="white" stroke-opacity="0.1" stroke-width="1.01997"/>
<path d="M801.391 0.958984V806.735" stroke="white" stroke-opacity="0.1" stroke-width="1.01997"/>
<path d="M830.6 0.958984V806.735" stroke="white" stroke-opacity="0.1" stroke-width="1.01997"/>
<path d="M859.809 0.958984V806.735" stroke="white" stroke-opacity="0.1" stroke-width="1.01997"/>
<path d="M889.018 0.958984V806.735" stroke="white" stroke-opacity="0.1" stroke-width="1.01997"/>
<path d="M918.229 0.958984V806.735" stroke="white" stroke-opacity="0.1" stroke-width="1.01997"/>
<path d="M947.438 0.958984V806.735" stroke="white" stroke-opacity="0.1" stroke-width="1.01997"/>
<path d="M976.646 0.958984V806.735" stroke="white" stroke-opacity="0.1" stroke-width="1.01997"/>
</g>
</svg>
